<svg width="96" height="96" viewBox="0 0 96 96" fill="none" xmlns="http://www.w3.org/2000/svg">
<g clip-path="url(#clip0_94_562)">
<path d="M78 79L48.5 65.4062L19 79L48.5 17L78 79Z" fill="#FFECCC"/>
<path d="M39.7393 60.6304C39.921 60.6304 40.0906 60.7213 40.1914 60.8726L47.1973 71.3911L40.1914 81.9097C40.0906 82.0609 39.921 82.1518 39.7393 82.1519H2.80176L9.41504 72.2231L9.96875 71.3911L9.41504 70.5601L2.80176 60.6304H39.7393Z" stroke="#23262A" stroke-width="3"/>
<path d="M26 52.9999C26 52.1715 25.3284 51.4999 24.5 51.4999C23.6716 51.4999 23 52.1715 23 52.9999H24.5H26ZM24.5 61.1738H26V52.9999H24.5H23V61.1738H24.5Z" fill="#23262A"/>
<path d="M24.5 83.6521L24.5 99.9999" stroke="#23262A" stroke-width="3"/>
<path d="M65.6502 16.8434L88.1491 39.5694C89.6402 41.0755 89.6402 43.5175 88.1491 45.0236C86.658 46.5298 84.2404 46.5298 82.7493 45.0236L74.6497 36.8423L80.9494 43.206C82.4405 44.7122 82.4405 47.1541 80.9494 48.6603C79.4583 50.1664 77.0408 50.1664 75.5497 48.6603L69.25 42.297L73.7497 46.8423C75.2408 48.3485 75.2408 50.7904 73.7497 52.2965C72.2586 53.8027 69.8411 53.8027 68.35 52.2966L63.8502 47.7513L66.4997 50.4275C68.0095 51.9525 67.9847 54.4327 66.4447 55.9267C64.9552 57.3717 62.5973 57.3556 61.1272 55.8904L39.0001 33.8359L39 13.2666L54.2727 13.2666M67.45 15.0257L59.3504 23.207C57.3623 25.2152 54.1389 25.2152 52.1508 23.207L50.3306 21.3685C49.3445 20.3724 49.3355 18.7603 50.3104 17.753L63.0909 4.54759C65.017 2.55738 68.1612 2.47634 70.1854 4.36473L79.7272 13.2666L95 13.2667L95 34.1155L82.7493 34.1155" stroke="#23262A" stroke-width="3"/>
</g>
<defs>
<clipPath id="clip0_94_562">
<rect width="96" height="96" fill="white"/>
</clipPath>
</defs>
</svg>
