<svg width="96" height="96" viewBox="0 0 96 96" fill="none" xmlns="http://www.w3.org/2000/svg">
<g clip-path="url(#clip0_1269_12148)">
<rect width="96" height="96" fill="white"/>
<rect x="90" y="29" width="64" height="12" transform="rotate(-180 90 29)" fill="#CCE2F0"/>
<rect x="78" y="57" width="64" height="12" transform="rotate(-180 78 57)" fill="#CCE2F0"/>
<rect x="64" y="84" width="64" height="12" transform="rotate(-180 64 84)" fill="#CCE2F0"/>
<path d="M8.3596 11.605L9.82843 13.793L16.471 9.12193" stroke="#23262A" stroke-width="3" stroke-linecap="round" stroke-linejoin="round"/>
<path d="M22.3596 31.2971L23.8284 33.4852L30.471 28.8141" stroke="#23262A" stroke-width="3" stroke-linecap="round" stroke-linejoin="round"/>
<path d="M23 12H29" stroke="#23262A" stroke-width="3" stroke-linecap="round"/>
<path d="M8 22H14" stroke="#23262A" stroke-width="3" stroke-linecap="round"/>
<path d="M8 32H14" stroke="#23262A" stroke-width="3" stroke-linecap="round"/>
<path d="M23 22H29" stroke="#23262A" stroke-width="3" stroke-linecap="round"/>
<path d="M37 22H43" stroke="#23262A" stroke-width="3" stroke-linecap="round"/>
<path d="M37 12H43" stroke="#23262A" stroke-width="3" stroke-linecap="round"/>
<mask id="path-12-inside-1_1269_12148" fill="white">
<rect width="52" height="42" rx="2"/>
</mask>
<rect width="52" height="42" rx="2" stroke="#23262A" stroke-width="6" mask="url(#path-12-inside-1_1269_12148)"/>
<path d="M52.9323 60.5H90.754C92.4041 60.5 93.6016 62.0705 93.1648 63.6618L85.4785 91.6618C85.1805 92.7475 84.1936 93.5 83.0677 93.5H45.246C43.5959 93.5 42.3984 91.9295 42.8352 90.3382L50.5215 62.3382C50.8195 61.2525 51.8064 60.5 52.9323 60.5Z" stroke="#23262A" stroke-width="3"/>
<path d="M48.7842 70.0323L66.9018 78.742L91.0587 70.0323" stroke="#23262A" stroke-width="3" stroke-linejoin="round"/>
</g>
<defs>
<clipPath id="clip0_1269_12148">
<rect width="96" height="96" fill="white"/>
</clipPath>
</defs>
</svg>
