<svg width="96" height="96" viewBox="0 0 111 107" fill="none" xmlns="http://www.w3.org/2000/svg">
<g clip-path="url(#clip0_1199_11529)">
<path fill-rule="evenodd" clip-rule="evenodd" d="M58 75C58 75 66 66.3333 66 60.7778C66 56.4822 62.4183 53 58 53C53.5817 53 50 56.4822 50 60.7778C50 66.3333 58 75 58 75ZM58 64C59.6569 64 61 62.6569 61 61C61 59.3431 59.6569 58 58 58C56.3431 58 55 59.3431 55 61C55 62.6569 56.3431 64 58 64Z" fill="#c58aa2"/>
<rect x="40.6274" y="20" width="48" height="32" transform="rotate(45 40.6274 20)" fill="#c58aa2"/>
<path d="M39 83L82 40L82 83L39 83Z" fill="#c58aa2"/>
</g>
<path fill-rule="evenodd" clip-rule="evenodd" d="M13.177 46.4062V8.59375H41.8228V30.9375C41.8228 31.8867 42.5923 32.6562 43.5416 32.6562C44.4908 32.6562 45.2603 31.8867 45.2603 30.9375V8.02083C45.2603 6.43877 43.9778 5.15625 42.3958 5.15625H12.6041C11.022 5.15625 9.7395 6.43877 9.7395 8.02083V46.9792C9.7395 48.5612 11.022 49.8438 12.6041 49.8438H16.5961C17.5453 49.8438 18.3148 49.0742 18.3148 48.125C18.3148 47.1758 17.5453 46.4062 16.5961 46.4062H13.177ZM25.0937 14.0939C25.8531 14.6634 26.007 15.7407 25.4374 16.5001L21.9999 21.0834C21.701 21.482 21.2438 21.7313 20.7468 21.7666C20.2498 21.8019 19.7619 21.6198 19.4096 21.2675L17.1179 18.9759C16.4467 18.3046 16.4467 17.2164 17.1179 16.5452C17.7891 15.874 18.8774 15.874 19.5486 16.5452L20.439 17.4355L22.6874 14.4376C23.257 13.6782 24.3343 13.5243 25.0937 14.0939ZM29.7916 16.6146C28.8423 16.6146 28.0728 17.3841 28.0728 18.3333C28.0728 19.2826 28.8423 20.0521 29.7916 20.0521H35.5208C36.47 20.0521 37.2395 19.2826 37.2395 18.3333C37.2395 17.3841 36.47 16.6146 35.5208 16.6146H29.7916ZM21.738 28.5407C22.242 28.0658 22.9818 27.9398 23.6147 28.221L44.2397 37.3877C44.8604 37.6636 45.2604 38.2791 45.2604 38.9583C45.2604 39.6375 44.8604 40.2531 44.2397 40.5289L23.6147 49.6956C22.9818 49.9769 22.242 49.8508 21.738 49.3759C21.2339 48.901 21.0642 48.1699 21.3073 47.5215L24.5185 38.9583L21.3073 30.3951C21.0642 29.7467 21.2339 29.0156 21.738 28.5407ZM25.9658 33.0277L27.5452 37.2396H32.0833C33.0326 37.2396 33.8021 38.0091 33.8021 38.9583C33.8021 39.9075 33.0326 40.6771 32.0833 40.6771H27.5452L25.9658 44.8889L39.3097 38.9583L25.9658 33.0277Z" fill="#b16887"/>
<path fill-rule="evenodd" clip-rule="evenodd" d="M64.5938 79.5C64.5938 69.0584 73.0584 60.5938 83.5 60.5938C93.9416 60.5938 102.406 69.0584 102.406 79.5C102.406 89.9416 93.9416 98.4062 83.5 98.4062C73.0584 98.4062 64.5938 89.9416 64.5938 79.5ZM83.5 57.1562C71.1599 57.1562 61.1562 67.1599 61.1562 79.5C61.1562 91.8401 71.1599 101.844 83.5 101.844C95.8401 101.844 105.844 91.8401 105.844 79.5C105.844 67.1599 95.8401 57.1562 83.5 57.1562ZM93.9787 73.7352C94.5919 73.0105 94.5015 71.9261 93.7769 71.3129C93.0522 70.6997 91.9678 70.7901 91.3546 71.5148L79.957 84.9846L74.4028 79.4305C73.7316 78.7592 72.6434 78.7592 71.9722 79.4305C71.3009 80.1017 71.3009 81.1899 71.9722 81.8611L78.8472 88.7361C79.187 89.076 79.6537 89.258 80.1339 89.2381C80.6142 89.2181 81.0641 88.9979 81.3746 88.631L93.9787 73.7352Z" fill="#b16887"/>
<defs>
<clipPath id="clip0_1199_11529">
<rect width="96" height="96" fill="white" transform="translate(10 6)"/>
</clipPath>
</defs>
</svg>
